<svg width="111" height="37" viewBox="0 0 111 37" fill="none" xmlns="http://www.w3.org/2000/svg">
<rect width="57.6971" height="37" rx="4" fill="#121221"/>
<path d="M19.088 13.992C18.736 14.0453 18.4747 14.136 18.304 14.264C18.144 14.392 18.032 14.5947 17.968 14.872C17.9147 15.1493 17.888 15.56 17.888 16.104V25.032L17.504 25.016L17.072 25.032L10.128 16.232V22.376C10.128 23.0053 10.16 23.4693 10.224 23.768C10.288 24.056 10.4267 24.2693 10.64 24.408C10.8533 24.536 11.2 24.6267 11.68 24.68V25C11.264 24.968 10.688 24.952 9.952 24.952C9.36533 24.952 8.90133 24.968 8.56 25V24.68C8.912 24.6267 9.168 24.536 9.328 24.408C9.49867 24.28 9.61067 24.0773 9.664 23.8C9.728 23.5227 9.76 23.112 9.76 22.568V15.368C9.76 14.9627 9.728 14.6693 9.664 14.488C9.61067 14.3067 9.49867 14.184 9.328 14.12C9.168 14.056 8.912 14.0133 8.56 13.992V13.672C8.90133 13.704 9.36533 13.72 9.952 13.72C10.4853 13.72 10.944 13.704 11.328 13.672L17.52 21.304V16.296C17.52 15.6667 17.488 15.208 17.424 14.92C17.36 14.6213 17.2213 14.408 17.008 14.28C16.7947 14.1413 16.448 14.0453 15.968 13.992V13.672C16.384 13.704 16.96 13.72 17.696 13.72C18.2933 13.72 18.7573 13.704 19.088 13.672V13.992ZM24.3224 23.912C25.197 23.912 25.901 23.4853 26.4344 22.632L26.7224 22.728C26.509 23.4213 26.125 24.0133 25.5704 24.504C25.0264 24.984 24.3437 25.224 23.5224 25.224C22.3917 25.224 21.4904 24.8667 20.8184 24.152C20.157 23.4267 19.8264 22.36 19.8264 20.952C19.8264 19.512 20.1837 18.4133 20.8984 17.656C21.613 16.888 22.5624 16.504 23.7464 16.504C25.7517 16.504 26.7544 17.688 26.7544 20.056H22.2584C22.2477 20.216 22.2424 20.4667 22.2424 20.808C22.2424 21.512 22.3384 22.0987 22.5304 22.568C22.733 23.0373 22.989 23.3787 23.2984 23.592C23.6184 23.8053 23.9597 23.912 24.3224 23.912ZM23.6504 16.84C23.2664 16.84 22.9464 17.08 22.6904 17.56C22.445 18.0293 22.2904 18.76 22.2264 19.752H24.7384C24.7597 18.9093 24.6744 18.216 24.4824 17.672C24.301 17.1173 24.0237 16.84 23.6504 16.84ZM38.5166 16.776C39.0606 16.776 39.466 16.76 39.7326 16.728V17.048C39.5086 17.112 39.306 17.2453 39.1246 17.448C38.9433 17.6507 38.7833 17.976 38.6446 18.424L36.5166 25.032C36.3993 25.0213 36.2233 25.016 35.9886 25.016C35.7646 25.016 35.594 25.0213 35.4766 25.032L33.3006 19.096L31.5246 25.032C31.418 25.0213 31.2473 25.016 31.0126 25.016C30.778 25.016 30.602 25.0213 30.4846 25.032L27.9566 17.96C27.8286 17.5867 27.6846 17.3467 27.5246 17.24C27.3646 17.1227 27.1993 17.064 27.0286 17.064V16.728C27.722 16.792 28.4793 16.824 29.3006 16.824C29.834 16.824 30.5273 16.792 31.3806 16.728V17.064C31.0286 17.064 30.7726 17.0907 30.6126 17.144C30.4633 17.1973 30.3886 17.3253 30.3886 17.528C30.3886 17.6667 30.4153 17.8107 30.4686 17.96L31.9086 22.488L33.6526 16.712L34.2446 16.728L34.8206 16.712L36.9006 22.824L37.9086 19.608C38.058 19.1067 38.1326 18.7013 38.1326 18.392C38.1326 17.56 37.7113 17.112 36.8686 17.048V16.728C37.37 16.76 37.9193 16.776 38.5166 16.776ZM43.0989 16.504C43.5042 16.504 43.8775 16.5573 44.2189 16.664C44.5602 16.76 44.8215 16.872 45.0029 17C45.1095 17.0747 45.2055 17.112 45.2909 17.112C45.3869 17.112 45.4669 17.064 45.5309 16.968C45.6055 16.8613 45.6535 16.712 45.6749 16.52H46.0109C45.9682 17.064 45.9469 18.0027 45.9469 19.336H45.6109C45.5149 18.632 45.3015 18.0453 44.9709 17.576C44.6509 17.096 44.1815 16.856 43.5629 16.856C43.2429 16.856 42.9762 16.9467 42.7629 17.128C42.5602 17.3093 42.4589 17.56 42.4589 17.88C42.4589 18.2427 42.5815 18.5573 42.8269 18.824C43.0722 19.08 43.4562 19.3947 43.9789 19.768L44.4429 20.104C45.0935 20.5947 45.5735 21.032 45.8829 21.416C46.1922 21.8 46.3469 22.28 46.3469 22.856C46.3469 23.3253 46.2082 23.7413 45.9309 24.104C45.6642 24.4667 45.3015 24.744 44.8429 24.936C44.3842 25.128 43.8775 25.224 43.3229 25.224C42.7362 25.224 42.2349 25.112 41.8189 24.888C41.4775 24.7173 41.2322 24.6053 41.0829 24.552C40.9762 24.52 40.8802 24.5573 40.7949 24.664C40.7202 24.76 40.6615 24.9093 40.6189 25.112H40.2829C40.3255 24.504 40.3469 23.4373 40.3469 21.912H40.6829C40.8962 23.8747 41.6162 24.856 42.8429 24.856C43.1522 24.856 43.4135 24.7653 43.6269 24.584C43.8509 24.392 43.9629 24.104 43.9629 23.72C43.9629 23.4213 43.8935 23.1547 43.7549 22.92C43.6269 22.6853 43.4615 22.4773 43.2589 22.296C43.0562 22.1147 42.7522 21.864 42.3469 21.544C41.8669 21.16 41.4989 20.8507 41.2429 20.616C40.9975 20.3813 40.7842 20.104 40.6029 19.784C40.4322 19.464 40.3469 19.1067 40.3469 18.712C40.3469 18.0293 40.6135 17.4907 41.1469 17.096C41.6802 16.7013 42.3309 16.504 43.0989 16.504Z" fill="white"/>
<path d="M69.8974 20.424V23.208C69.8974 23.6347 69.94 23.9493 70.0254 24.152C70.1214 24.344 70.2814 24.472 70.5054 24.536C70.74 24.6 71.108 24.6373 71.6094 24.648V25C70.2974 24.968 69.3214 24.952 68.6814 24.952C68.148 24.952 67.476 24.9627 66.6654 24.984L66.1534 25V24.68C66.5054 24.6587 66.7614 24.616 66.9214 24.552C67.092 24.488 67.204 24.3653 67.2574 24.184C67.3214 24.0027 67.3534 23.7093 67.3534 23.304V15.368C67.3534 14.9627 67.3214 14.6693 67.2574 14.488C67.204 14.3067 67.092 14.184 66.9214 14.12C66.7614 14.056 66.5054 14.0133 66.1534 13.992V13.672C66.6974 13.704 67.508 13.72 68.5854 13.72L70.3614 13.704C70.5747 13.6933 70.82 13.688 71.0974 13.688C72.5374 13.688 73.636 13.976 74.3934 14.552C75.1507 15.1173 75.5294 15.88 75.5294 16.84C75.5294 17.4267 75.38 17.992 75.0814 18.536C74.7827 19.0693 74.276 19.5173 73.5614 19.88C72.8574 20.2427 71.9187 20.424 70.7454 20.424H69.8974ZM70.8894 13.992C70.6014 13.992 70.388 14.0293 70.2494 14.104C70.1214 14.1787 70.0307 14.312 69.9774 14.504C69.924 14.696 69.8974 14.984 69.8974 15.368V20.104H70.5854C71.4494 20.104 72.0467 19.8267 72.3774 19.272C72.708 18.7173 72.8734 17.9653 72.8734 17.016C72.8734 15.9813 72.7187 15.2187 72.4094 14.728C72.1107 14.2373 71.604 13.992 70.8894 13.992ZM80.1214 16.504C81.348 16.504 82.308 16.856 83.0014 17.56C83.6947 18.2533 84.0414 19.3573 84.0414 20.872C84.0414 22.3867 83.6947 23.4907 83.0014 24.184C82.308 24.8773 81.348 25.224 80.1214 25.224C78.9054 25.224 77.9454 24.8773 77.2414 24.184C76.548 23.4907 76.2014 22.3867 76.2014 20.872C76.2014 19.3573 76.548 18.2533 77.2414 17.56C77.9454 16.856 78.9054 16.504 80.1214 16.504ZM80.1214 16.824C79.6627 16.824 79.2947 17.16 79.0174 17.832C78.7507 18.4933 78.6174 19.5067 78.6174 20.872C78.6174 22.2373 78.7507 23.2507 79.0174 23.912C79.2947 24.5733 79.6627 24.904 80.1214 24.904C80.5907 24.904 80.9587 24.5787 81.2254 23.928C81.492 23.2667 81.6254 22.248 81.6254 20.872C81.6254 19.496 81.4867 18.4773 81.2094 17.816C80.9427 17.1547 80.58 16.824 80.1214 16.824ZM90.5443 16.504C91.0243 16.504 91.3869 16.648 91.6323 16.936C91.8776 17.224 92.0003 17.5707 92.0003 17.976C92.0003 18.3707 91.8829 18.696 91.6483 18.952C91.4243 19.1973 91.1256 19.32 90.7523 19.32C90.3896 19.32 90.1016 19.2293 89.8883 19.048C89.6749 18.856 89.5683 18.6053 89.5683 18.296C89.5683 17.784 89.8029 17.368 90.2723 17.048C90.2296 17.0373 90.1656 17.032 90.0803 17.032C89.9736 17.032 89.8883 17.0427 89.8243 17.064C89.4189 17.128 89.0723 17.3733 88.7843 17.8C88.5069 18.2267 88.3683 18.664 88.3683 19.112V23.352C88.3683 23.8427 88.4856 24.184 88.7203 24.376C88.9656 24.568 89.3496 24.664 89.8723 24.664V25C89.7229 25 89.6003 24.9947 89.5043 24.984C88.4163 24.952 87.6909 24.936 87.3283 24.936C87.0403 24.936 86.3843 24.952 85.3603 24.984C85.2749 24.9947 85.1683 25 85.0403 25V24.664C85.4243 24.664 85.6909 24.584 85.8403 24.424C85.9896 24.2533 86.0643 23.9493 86.0643 23.512V18.472C86.0643 17.9813 85.9896 17.624 85.8403 17.4C85.6909 17.176 85.4243 17.064 85.0403 17.064V16.728C85.3816 16.76 85.7123 16.776 86.0323 16.776C86.9816 16.776 87.7603 16.7013 88.3683 16.552V18.04C88.5709 17.5813 88.8643 17.2133 89.2483 16.936C89.6323 16.648 90.0643 16.504 90.5443 16.504ZM95.757 16.728H97.645V17.048H95.757V23.512C95.757 23.832 95.8103 24.0613 95.917 24.2C96.0343 24.328 96.2157 24.392 96.461 24.392C96.9197 24.392 97.2823 24.072 97.549 23.432L97.821 23.576C97.4157 24.6747 96.685 25.224 95.629 25.224C94.925 25.224 94.3917 25.0427 94.029 24.68C93.805 24.456 93.6503 24.1787 93.565 23.848C93.4903 23.5067 93.453 23.0427 93.453 22.456V17.048H92.109V16.728H93.453V14.616C94.3383 14.616 95.1063 14.4453 95.757 14.104V16.728ZM100.246 25.112C99.5633 25.112 99.0513 24.936 98.71 24.584C98.3793 24.232 98.214 23.768 98.214 23.192C98.214 22.712 98.3367 22.3173 98.582 22.008C98.838 21.688 99.142 21.4427 99.494 21.272C99.8567 21.1013 100.315 20.92 100.87 20.728C101.457 20.5253 101.883 20.344 102.15 20.184C102.427 20.0133 102.566 19.784 102.566 19.496V18.248C102.566 17.8 102.459 17.4533 102.246 17.208C102.043 16.952 101.723 16.824 101.286 16.824C100.774 16.824 100.385 16.952 100.118 17.208C100.417 17.3147 100.646 17.4747 100.806 17.688C100.977 17.9013 101.062 18.152 101.062 18.44C101.062 18.8027 100.939 19.0907 100.694 19.304C100.449 19.5173 100.15 19.624 99.798 19.624C99.4247 19.624 99.1367 19.5067 98.934 19.272C98.7313 19.0373 98.63 18.744 98.63 18.392C98.63 18.0933 98.6993 17.8427 98.838 17.64C98.9873 17.4267 99.2113 17.2293 99.51 17.048C99.798 16.8773 100.15 16.744 100.566 16.648C100.993 16.552 101.457 16.504 101.958 16.504C102.481 16.504 102.934 16.5573 103.318 16.664C103.702 16.7707 104.022 16.952 104.278 17.208C104.513 17.4427 104.667 17.7307 104.742 18.072C104.827 18.4133 104.87 18.8773 104.87 19.464V23.816C104.87 24.072 104.891 24.2533 104.934 24.36C104.987 24.4667 105.083 24.52 105.222 24.52C105.382 24.52 105.574 24.4293 105.798 24.248L105.958 24.52C105.478 24.9147 104.891 25.112 104.198 25.112C103.611 25.112 103.201 24.9947 102.966 24.76C102.731 24.5253 102.609 24.2107 102.598 23.816C102.065 24.68 101.281 25.112 100.246 25.112ZM101.478 24.088C101.894 24.088 102.257 23.8693 102.566 23.432V20.152C102.438 20.3653 102.166 20.6 101.75 20.856C101.334 21.1227 101.019 21.3893 100.806 21.656C100.593 21.9227 100.486 22.3067 100.486 22.808C100.486 23.2453 100.577 23.5707 100.758 23.784C100.939 23.9867 101.179 24.088 101.478 24.088ZM109.679 23.512C109.679 23.9493 109.754 24.2533 109.903 24.424C110.053 24.584 110.319 24.664 110.703 24.664V25C109.594 24.9573 108.879 24.936 108.559 24.936C108.197 24.936 107.461 24.9573 106.351 25V24.664C106.725 24.664 106.986 24.584 107.135 24.424C107.295 24.2533 107.375 23.9493 107.375 23.512V14.392C107.375 13.9013 107.295 13.544 107.135 13.32C106.986 13.096 106.725 12.984 106.351 12.984V12.648C106.693 12.68 107.023 12.696 107.343 12.696C108.271 12.696 109.05 12.6213 109.679 12.472V23.512Z" fill="black"/>
</svg>
