<svg width="21" height="21" viewBox="0 0 21 21" fill="none" xmlns="http://www.w3.org/2000/svg">
<path fill-rule="evenodd" clip-rule="evenodd" d="M13.111 4.5623C15.5619 7.01317 15.5619 10.9868 13.111 13.4377C10.6601 15.8886 6.68649 15.8886 4.23561 13.4377C1.78474 10.9868 1.78474 7.01317 4.23561 4.5623C6.68649 2.11142 10.6601 2.11142 13.111 4.5623ZM15.189 14.1039C17.7395 10.8563 17.5183 6.1411 14.5252 3.14808C11.2933 -0.0838428 6.05333 -0.0838427 2.8214 3.14808C-0.410525 6.38001 -0.410525 11.62 2.8214 14.8519C5.81443 17.8449 10.5296 18.0662 13.7772 15.5156C13.7904 15.5304 13.804 15.5449 13.8182 15.559L18.4997 20.2406C18.8902 20.6311 19.5234 20.6311 19.9139 20.2406C20.3044 19.85 20.3044 19.2169 19.9139 18.8264L15.2324 14.1448C15.2182 14.1307 15.2037 14.117 15.189 14.1039Z" fill="#444444"/>
</svg>
